<svg xmlns="http://www.w3.org/2000/svg" id="Layer_1" viewBox="0 0 208.81 155.18"><defs><style>.cls-1{fill:#2b72d6;}</style></defs><path class="cls-1" d="M103.13,18.58c-8.89,4.54-17.16,9.13-24.82,13.76-7.66,4.64-14.23,9.22-19.72,13.76-6.43,5.49-11.73,11.35-15.89,17.59-4.16,6.24-7.76,14.28-10.78,24.11h12.2c11.91,0,20.47,2.93,25.67,8.79,5.2,5.86,7.8,12.39,7.8,19.57,0,9.08-3.5,17.73-10.5,25.96-7,8.23-16.55,12.34-28.65,12.34-12.86,0-22.37-3.59-28.51-10.78C3.79,136.5,.72,127.05,.72,115.32c0-15.32,3.31-29.22,9.93-41.7,6.62-12.48,14.94-23.64,24.96-33.48,9.83-9.46,20.09-17.31,30.78-23.55,10.68-6.24,20.09-11.53,28.23-15.89l8.51,17.87Zm104.96,0c-8.89,4.54-17.16,9.13-24.82,13.76-7.66,4.64-14.23,9.22-19.72,13.76-6.43,5.49-11.73,11.35-15.89,17.59-4.16,6.24-7.76,14.28-10.78,24.11h12.2c11.92,0,20.47,2.93,25.67,8.79,5.2,5.86,7.8,12.39,7.8,19.57,0,9.08-3.5,17.73-10.5,25.96-7,8.23-16.55,12.34-28.65,12.34-12.86,0-22.37-3.59-28.51-10.78-6.15-7.19-9.22-16.64-9.22-28.37,0-15.32,3.31-29.22,9.93-41.7,6.62-12.48,14.94-23.64,24.96-33.48,9.83-9.46,20.09-17.31,30.78-23.55,10.68-6.24,20.09-11.53,28.23-15.89l8.51,17.87Z"/></svg>