<svg xmlns="http://www.w3.org/2000/svg" id="Layer_1" viewBox="0 0 21.58 21.58"><defs><style>.cls-1{fill:#fff;}</style></defs><path id="Path_263" class="cls-1" d="M0,9.44C0,8.99,0,8.54,.03,8.09v-.05s.01-.03,0-.05c0,0,0,0,0,0v-.12c.04-.14,.07-.29,.08-.44,.05-.23,.09-.46,.14-.7,.12-.45,.26-.9,.43-1.33,.17-.38,.35-.74,.56-1.1,.06-.07,.1-.16,.14-.24h0s.02-.01,.03-.02c.3-.47,.65-.91,1.03-1.31l.32-.32c.48-.44,1-.83,1.55-1.17,.36-.21,.73-.38,1.11-.56,.44-.17,.9-.32,1.36-.44,.32-.06,.64-.12,.97-.16,.7-.08,1.41-.08,2.11,0,.33,.04,.65,.1,.97,.16,.46,.12,.91,.27,1.36,.44,.44,.2,.88,.43,1.3,.67,.02,.02,.05,.04,.08,.05,.46,.31,.9,.66,1.31,1.03l.27,.27c.39,.42,.74,.87,1.05,1.34,0,0,.02,.01,.03,.02h0c.07,.15,.15,.29,.24,.43,.17,.3,.31,.61,.46,.92,.16,.44,.31,.88,.43,1.33,.08,.36,.14,.72,.18,1.08,.05,.56,.06,1.12,.02,1.68-.04,.44-.11,.88-.2,1.31-.12,.45-.26,.89-.43,1.33-.21,.46-.44,.91-.7,1.35h0s-.05,.06-.08,.09c-.16,.24-.33,.47-.51,.69l-.18,.23c.26-.01,.52,0,.77,.06,.12,.09,.23,.19,.33,.3l1.02,1.02,.31,.31,1.02,1.02,.34,.34,1.02,1.02,.34,.34c.25,.26,.51,.52,.77,.77,.09,.08,.16,.18,.23,.29v.29s0,.07,0,.07c-.06,.1-.13,.19-.21,.27-.22,.22-.43,.43-.65,.65-.1,.12-.22,.23-.36,.32-.23,.07-.48,0-.64-.18-.25-.27-.53-.53-.79-.79l-.37-.37-.96-.96-.4-.4-.96-.96-.4-.4-.96-.96-.32-.34c-.04-.25-.06-.5-.04-.75-.04-.02-.05,0-.07,.02-.67,.57-1.42,1.03-2.23,1.37-.02,0-.04,.02-.05,.03-.44,.18-.9,.32-1.36,.44-.42,.08-.85,.16-1.28,.2h-.08c-.44,.03-.89,.03-1.33,0h-.08c-.43-.05-.86-.12-1.28-.21-.46-.12-.91-.27-1.36-.44-.46-.2-.91-.43-1.34-.7-.48-.31-.93-.66-1.35-1.05l-.29-.3c-.46-.49-.86-1.03-1.21-1.61-.2-.35-.38-.71-.54-1.07-.17-.44-.31-.88-.43-1.33-.04-.23-.09-.46-.14-.7-.01-.15-.04-.3-.08-.44v-.1s.01-.09-.02-.13H0ZM6.76,2.34c-.29,.08-.57,.19-.84,.33-.18,.07-.35,.16-.52,.27-.03,.01-.05,.02-.08,.04-.56,.34-1.07,.75-1.51,1.23-.33,.35-.62,.75-.86,1.17-.1,.16-.19,.33-.27,.5-.33,.7-.54,1.45-.61,2.22-.03,.12-.04,.23-.03,.35-.03,.33-.01,.67,.03,1,.03,.46,.13,.92,.28,1.36,.08,.3,.2,.59,.34,.86,.07,.18,.16,.34,.27,.5,0,.02,.02,.04,.03,.05,.39,.66,.88,1.24,1.47,1.73,.29,.25,.61,.47,.95,.66,.15,.1,.3,.18,.47,.24,.28,.15,.58,.27,.89,.36,.43,.14,.88,.24,1.33,.28,.45,.04,.9,.04,1.36,0,.07,0,.13-.01,.19-.02,.4-.05,.79-.13,1.17-.26,.31-.08,.61-.2,.89-.35,.16-.06,.32-.15,.47-.24,.04-.02,.08-.04,.12-.06,.54-.33,1.03-.73,1.45-1.19,.35-.37,.65-.78,.89-1.22,.1-.15,.18-.31,.25-.47,.14-.27,.25-.56,.34-.86,.15-.44,.24-.9,.28-1.36,.06-.45,.06-.91,0-1.36-.04-.46-.13-.92-.28-1.36-.08-.29-.19-.57-.33-.84-.07-.17-.16-.34-.26-.49-.34-.61-.78-1.16-1.3-1.62-.34-.32-.72-.6-1.13-.82-.18-.12-.37-.22-.57-.3-.26-.14-.53-.24-.82-.32-.04-.02-.08-.03-.12-.05-.4-.12-.82-.2-1.23-.24-.12,0-.24-.02-.37-.02-.33-.02-.66,0-.99,.03-.1,0-.2,.02-.31,.03-.35,.05-.69,.13-1.03,.25h0Z"/></svg>