<svg xmlns="http://www.w3.org/2000/svg" xmlns:xlink="http://www.w3.org/1999/xlink" width="50.736" height="50.754" viewBox="0 0 50.736 50.754">
  <defs>
    <clipPath id="clip-path">
      <rect id="Rectangle_102" data-name="Rectangle 102" width="50.754" height="50.736" fill="none"/>
    </clipPath>
  </defs>
  <g id="Group_251" data-name="Group 251" transform="translate(50.736) rotate(90)">
    <g id="Group_250" data-name="Group 250" transform="translate(0 0)" clip-path="url(#clip-path)">
      <path id="Path_210" data-name="Path 210" d="M31.587,6.779A18.655,18.655,0,0,1,48.581,23.773a1.691,1.691,0,0,0,1.679,1.566h3.022c1.362,0,2.143-.831,2.073-1.809A25.39,25.39,0,0,0,31.827,0,1.7,1.7,0,0,0,30.02,1.7V5.1a1.7,1.7,0,0,0,1.566,1.682" transform="translate(-4.606 0)" fill="#3a82e4"/>
      <path id="Path_211" data-name="Path 211" d="M25.416,50.905A25.409,25.409,0,0,0,49.737,32.846a1.7,1.7,0,0,0-1.614-2.212H44.547a1.669,1.669,0,0,0-1.581,1.1A18.677,18.677,0,0,1,28.8,43.807V25.221L34.681,31.1a1.693,1.693,0,0,0,2.395,0L39.47,28.7a1.694,1.694,0,0,0,0-2.395L26.613,13.454a1.693,1.693,0,0,0-2.394,0L11.363,26.31a1.694,1.694,0,0,0,0,2.395L13.757,31.1a1.693,1.693,0,0,0,2.395,0l5.878-5.878V43.813A18.614,18.614,0,0,1,19.224,7.947a1.664,1.664,0,0,0,1.1-1.576V2.788a1.7,1.7,0,0,0-2.21-1.611A25.408,25.408,0,0,0,.019,25.508c0,.572.025,1.138.063,1.7H0A25.4,25.4,0,0,0,1.4,33.98h.069A25.333,25.333,0,0,0,5.1,40.753H5.035a25.651,25.651,0,0,0,7.628,6.773h.1a25.265,25.265,0,0,0,12.652,3.38" transform="translate(0 -0.169)" fill="#100b31"/>
    </g>
  </g>
</svg>
