<?xml version="1.0" encoding="UTF-8"?><svg id="Layer_1" xmlns="http://www.w3.org/2000/svg" viewBox="0 0 18 19" width="18" height="19"><defs><style>.cls-1{fill:#fff;}.cls-2{fill:#3b8fd8;}</style></defs><g id="Group_244"><path id="Rectangle_100" class="cls-2" d="M9,.08h0C13.97,.08,18,4.11,18,9.08v.84c0,4.97-4.03,9-9,9h0C4.03,18.92,0,14.89,0,9.92v-.84C0,4.11,4.03,.08,9,.08Z"/></g><path id="angle-right" class="cls-1" d="M8.72,11.73l-4.25-3.82c-.18-.15-.2-.42-.05-.6,.15-.18,.42-.2,.6-.05,0,0,.01,.01,.02,.02l3.96,3.57,3.96-3.57c.17-.16,.44-.16,.6,.01,.16,.17,.16,.44-.01,.6,0,0-.01,.01-.02,.02l-4.22,3.82c-.17,.15-.42,.15-.59,0Z"/></svg>