<?xml version="1.0" encoding="UTF-8"?><svg id="Layer_1" xmlns="http://www.w3.org/2000/svg" viewBox="0 0 188.94 153.19"><defs><style>.cls-1{fill:#3b8fd8;}</style></defs><path class="cls-1" d="M83.97,16.96c-8.89,5.09-16.08,9.48-21.56,13.15-5.49,3.68-11.06,8.53-16.74,14.56-5.3,5.66-9.36,11.6-12.2,17.81-2.84,6.22-4.82,14.23-5.96,24.03h13.62c11.73,0,20.94,2.89,27.66,8.65,6.71,5.77,10.07,14.23,10.07,25.39,0,7.94-2.98,15.37-8.94,22.27-5.96,6.91-14.14,10.35-24.54,10.35-16.27,0-27.9-5.33-34.89-16C3.5,126.53,0,112.51,0,95.14c0-12.27,2.64-23.45,7.94-33.55,5.29-10.1,11.72-19.11,19.29-27.04,7.75-8.12,15.98-15,24.68-20.67C60.61,8.21,67.89,3.59,73.76,0l10.21,16.96Zm104.96,0c-8.89,5.09-16.08,9.48-21.56,13.15-5.49,3.68-11.06,8.53-16.74,14.56-5.49,5.84-9.6,11.83-12.34,17.96-2.74,6.13-4.68,14.09-5.82,23.89h13.62c11.72,0,20.95,2.89,27.66,8.65,6.71,5.77,10.07,14.23,10.07,25.39,0,7.94-2.98,15.37-8.94,22.27-5.96,6.91-14.14,10.35-24.54,10.35-16.27,0-27.9-5.33-34.89-16-7-10.67-10.5-24.69-10.5-42.05,0-12.27,2.65-23.45,7.94-33.55s11.72-19.11,19.29-27.04c7.75-8.12,15.98-15,24.68-20.67S172.84,3.58,178.7,0l10.21,16.96h.02Z"/></svg>