<?xml version="1.0" encoding="UTF-8"?> <svg xmlns="http://www.w3.org/2000/svg" id="Layer_1" viewBox="0 0 15.79 15.8"><defs><style>.cls-1{fill:#fff;}</style></defs><path id="Path_264" class="cls-1" d="M.06,6.88c.05-.29,.09-.57,.17-.85,.01-.06,.03-.11,.04-.17,.09-.34,.21-.67,.34-1,.06-.14,.14-.28,.18-.43l.33-.6c.2-.32,.42-.63,.65-.92,.28-.33,.58-.65,.9-.93,.37-.32,.76-.6,1.17-.86l.61-.34c.14-.04,.27-.1,.39-.17,.18-.07,.37-.13,.56-.2,.15-.05,.3-.09,.45-.14,.34-.08,.68-.15,1.02-.2,.34-.04,.68-.05,1.02-.07,.34,0,.68,.03,1.02,.07s.67,.12,1,.2c.35,.1,.69,.21,1.03,.35l.41,.19,.62,.33c.12,.08,.25,.16,.37,.25,.19,.13,.37,.27,.55,.4,.02,.02,.04,.04,.06,.05,.02,.02,.04,.04,.06,.06,.59,.5,1.1,1.09,1.52,1.74,.24,.38,.46,.78,.64,1.2,.13,.34,.25,.68,.35,1.02,.02,.08,.04,.16,.06,.24,.07,.26,.1,.52,.15,.78,.04,.34,.06,.68,.06,1.02,0,.34-.02,.67-.06,1.01-.05,.34-.12,.69-.2,1.02-.1,.35-.22,.69-.35,1.02l-.17,.39-.32,.59c-.25,.41-.53,.79-.84,1.15-.28,.32-.59,.63-.91,.9-.3,.25-.63,.48-.96,.68l-.61,.33-.43,.2c-.25,.09-.5,.19-.76,.26-.07,.02-.15,.04-.22,.07-.34,.08-.68,.15-1.02,.2-.34,.04-.68,.07-1.02,.07-.34-.02-.68-.02-1.02-.07-.3-.03-.6-.09-.89-.16-.04,0-.07-.04-.11-.03-.35-.1-.69-.22-1.02-.35-.14-.05-.26-.12-.39-.18-1.56-.76-2.83-2.01-3.61-3.56-.02-.03-.04-.06-.05-.1l-.17-.39c-.13-.34-.25-.68-.35-1.02,0-.03-.02-.06-.03-.09-.07-.3-.13-.6-.18-.91C.02,8.58,0,8.23,0,7.89c0-.34,.02-.67,.06-1Zm4.05,0c.03-.32,.05-.65,.1-.97,0-.05-.01-.05-.05-.05H1.38s-.05,0-.06,.04c-.1,.32-.17,.65-.22,.98-.06,.34-.09,.68-.07,1.02,0,.12,0,.25,0,.37,0,.21,.03,.42,.07,.63,.04,.33,.12,.66,.22,.99,.01,.05,.05,.04,.08,.04h2.74c.07,0,.08-.02,.07-.09-.05-.38-.08-.75-.1-1.13-.02-.28-.01-.56-.02-.84l.03-1Zm.86-4.08c.15-.34,.31-.68,.49-1,.09-.13,.18-.27,.25-.41h.01s0,0,0,0c0,0,0,0,0,0-.03,0-.07,0-.1,.02-1.62,.57-2.97,1.73-3.78,3.24-.1,.19-.1,.19,.11,.19h.07c.26,0,.53,0,.79,0,.33,.01,.67,.01,1,0,.17,.02,.34,0,.51,0,.04,0,.05-.02,.06-.06,.07-.32,.15-.64,.24-.96,.03-.08,.05-.17,.07-.25,.04-.17,.12-.33,.17-.49l.11-.28Zm9.05,2.01c-.16-.35-.37-.68-.6-.98-.13-.19-.28-.37-.44-.54-.15-.17-.31-.33-.49-.48,0-.01-.02-.02-.03-.03-.57-.51-1.23-.93-1.94-1.22-.14-.07-.29-.12-.44-.16,0,0,0-.02-.01,0h.01s.01,.04,.02,.06c.23,.34,.43,.7,.59,1.07,.32,.71,.55,1.46,.71,2.23,.01,.07,.04,.1,.12,.1,.4,0,.81,0,1.21,0,.09,0,.18,0,.27,0,.34,.01,.68,.01,1.02,0,.02-.01,.01-.02,0-.03h0ZM3.82,13.42c.31,.24,.64,.44,.99,.61,.29,.16,.59,.28,.9,.38,0,0,.02,0,.02,0h-.01s0-.03,0-.04c-.46-.7-.81-1.46-1.05-2.26-.02-.05-.02-.11-.06-.15,0-.02,0-.04,0-.06-.08-.3-.16-.6-.22-.91,0-.04-.03-.04-.06-.04H1.75c.17,.35,.38,.69,.62,1,.13,.19,.28,.38,.44,.54,.15,.18,.32,.35,.5,.5,.16,.15,.32,.29,.51,.42h0Zm8.15-2.46h-.5s-.06,.02-.06,.06c-.02,.09-.04,.19-.06,.28-.13,.58-.31,1.14-.53,1.69-.15,.34-.31,.68-.49,1l-.26,.41h-.01s.01,.02,.02,0c.03,0,.07-.02,.1-.03,1.66-.59,3.03-1.79,3.83-3.35,.01-.02,.03-.04,.02-.07h-2.06Zm2.72-4.08c-.04-.33-.12-.66-.21-.98,0-.03-.03-.05-.07-.05,0,0,0,0,0,0h-1.41c-.45,0-.9,0-1.36,0-.06,0-.06,.02-.05,.07,.07,.52,.11,1.04,.12,1.56,.02,.8-.02,1.6-.12,2.39,0,.04,0,.06,.05,.06h2.77s.06,0,.07-.04c.1-.31,.17-.64,.21-.96,.06-.34,.09-.69,.08-1.04,0-.12,0-.24,0-.35,0-.22-.03-.44-.07-.65h0ZM6.09,2.81c-.1,.19-.18,.39-.25,.59-.06,.14-.11,.28-.15,.43-.1,.31-.19,.62-.26,.94,0,.04-.02,.07,.04,.07,.13,0,.25,0,.38,0,.11,.01,.22,.01,.33,0,.23,0,.46,.01,.69,0,.34,.01,.68,.01,1.02,0,.09,.01,.17,.01,.26,0,.25,0,.51,.01,.77,0,.33,.01,.67,.01,1.01,0,.12,.02,.24,0,.36,0,.08,0,.1-.02,.08-.09-.08-.34-.17-.67-.28-1-.19-.61-.47-1.19-.82-1.73-.19-.3-.44-.56-.72-.77-.26-.22-.63-.29-.95-.18-.29,.11-.54,.3-.74,.55-.05,.03-.08,.08-.11,.13-.26,.32-.48,.67-.65,1.05h0Zm1.8,8.16h-2.4c-.07,0-.09,.01-.07,.08,.06,.21,.1,.42,.16,.63,.13,.47,.3,.92,.52,1.36,.16,.35,.37,.68,.61,.99,.19,.27,.44,.49,.73,.65,.28,.15,.61,.15,.89,0,.24-.13,.45-.3,.62-.51,.3-.35,.55-.75,.75-1.17,.16-.32,.28-.65,.38-.99,.11-.32,.21-.65,.28-.98,.01-.04,0-.05-.05-.05h-2.43Zm0-1.03h1.02c.53,0,1.05,0,1.58,0,.07,0,.07-.04,.07-.08,.06-.49,.1-.97,.12-1.46,.02-.57,0-1.14-.04-1.71-.02-.25-.05-.49-.08-.74,0-.04,0-.09-.07-.08-.19,0-.38,0-.58,0H5.85c-.18,0-.37,0-.56,0-.06,0-.07,.03-.07,.07-.04,.32-.08,.63-.09,.95,0,.16-.02,.32-.03,.48-.02,.58,0,1.17,.04,1.75,.02,.25,.05,.49,.08,.74,0,.04,0,.08,.07,.08,.19,0,.38,0,.58,0h2.03Z"></path></svg> 