<?xml version="1.0" encoding="UTF-8"?> <svg xmlns="http://www.w3.org/2000/svg" width="361.9" height="75.415" viewBox="0 0 361.9 75.415"><g id="_100_000-02" data-name="100,000-02" transform="translate(0 0.015)"><path id="comma" d="M165.7,71.3l14.1-23.1a1.6,1.6,0,0,1,2.2-.5l2.7,1.6a1.6,1.6,0,0,1,.5,2.2L171.1,74.6a1.6,1.6,0,0,1-2.2.5l-2.7-1.6A1.728,1.728,0,0,1,165.7,71.3Z" fill="#101c2a"></path><g id="_1"><path id="Rectangle_81" d="M.8,11.9,21,.2a1.633,1.633,0,0,1,2.2.6l1.6,2.7a1.633,1.633,0,0,1-.6,2.2L4,17.4a1.633,1.633,0,0,1-2.2-.6L.2,14.1A1.609,1.609,0,0,1,.8,11.9Z" fill="#2b72d6"></path><path id="Path_189" d="M19.2,14.2V73.7a1.58,1.58,0,0,0,1.6,1.6H24a1.58,1.58,0,0,0,1.6-1.6V10.6c0-.6-.7-.5-1.2-.2L20,12.9a1.441,1.441,0,0,0-.8,1.3Z"></path></g><g id="Group_391" data-name="Group 391" transform="translate(-1)"><path id="Path_228" data-name="Path 228" d="M48,33.8c.7-21.2,7.9-26.6,14.5-27.7a1.861,1.861,0,0,0,1.3-1.8v-3A1.283,1.283,0,0,0,62.1.1C49.4,1.9,42.7,13.2,42,33.7a1.483,1.483,0,0,0,1.4,1.6h3A1.63,1.63,0,0,0,48,33.8Z" fill="#2b72d6"></path><path id="Path_229" data-name="Path 229" d="M68.3,1.3v3c0,.7.5,1.7,1.3,1.8,7.1,1.2,14.6,7.2,14.6,31.5,0,28.5-10.4,31.7-18.1,31.7-7.4,0-17.2-3-18.1-28a1.63,1.63,0,0,0-1.6-1.5h-3A1.372,1.372,0,0,0,42,41.4c.8,22.5,8.9,34,24.1,34,8.6,0,15.1-3.7,19.1-11,3.4-6.2,5.1-15,5.1-26.8C90.3,14.7,83.5,2.1,70.1.1c-.9-.2-1.8.2-1.8,1.2Z" fill="#0c1c2c"></path></g><g id="Group_392" data-name="Group 392"><path id="Path_230" data-name="Path 230" d="M112.8,33.8c.7-21.2,7.9-26.6,14.5-27.7a1.861,1.861,0,0,0,1.3-1.8v-3A1.283,1.283,0,0,0,126.9.1C114.3,2,107.5,13.3,106.8,33.8a1.483,1.483,0,0,0,1.4,1.6h3a1.91,1.91,0,0,0,1.6-1.6Z" fill="#2b72d6"></path><path id="Path_231" data-name="Path 231" d="M133.1,1.2v3c0,.7.5,1.7,1.3,1.8,7.1,1.2,14.6,7.2,14.6,31.5,0,28.5-10.4,31.7-18.1,31.7-7.4,0-17.2-3-18.1-28a1.63,1.63,0,0,0-1.6-1.5h-3a1.372,1.372,0,0,0-1.4,1.6c.8,22.5,8.9,34,24.1,34,8.6,0,15.1-3.7,19.1-11,3.4-6.2,5.1-15,5.1-26.8C155,14.6,148.2,2,134.8,0c-.9-.1-1.7.3-1.7,1.2Z" fill="#0c1c2c"></path></g><g id="Group_393" data-name="Group 393"><path id="Path_232" data-name="Path 232" d="M202,33.8c.7-21.2,7.9-26.6,14.5-27.7a1.861,1.861,0,0,0,1.3-1.8v-3A1.283,1.283,0,0,0,216.1.1C203.5,2,196.7,13.3,196,33.8a1.483,1.483,0,0,0,1.4,1.6h3a1.718,1.718,0,0,0,1.6-1.6Z" fill="#2b72d6"></path><path id="Path_233" data-name="Path 233" d="M222.4,1.2v3c0,.7.5,1.7,1.3,1.8,7.1,1.2,14.6,7.2,14.6,31.5,0,28.5-10.4,31.7-18.1,31.7-7.4,0-17.2-3-18.1-28a1.63,1.63,0,0,0-1.6-1.5h-3a1.372,1.372,0,0,0-1.4,1.6c.8,22.5,8.9,34,24.1,34,8.6,0,15.1-3.7,19.1-11,3.4-6.2,5.1-15,5.1-26.8,0-22.9-6.8-35.5-20.2-37.5-1-.1-1.8.3-1.8,1.2Z" fill="#0c1c2c"></path></g><g id="Group_394" data-name="Group 394"><path id="Path_234" data-name="Path 234" d="M260.8,33.8c.7-21.2,7.9-26.6,14.5-27.7a1.861,1.861,0,0,0,1.3-1.8v-3A1.283,1.283,0,0,0,274.9.1C262.3,2,255.5,13.3,254.8,33.8a1.483,1.483,0,0,0,1.4,1.6h3a1.718,1.718,0,0,0,1.6-1.6Z" fill="#2b72d6"></path><path id="Path_235" data-name="Path 235" d="M281.2,1.2v3c0,.7.5,1.7,1.3,1.8,7.1,1.2,14.6,7.2,14.6,31.5,0,28.5-10.4,31.7-18.1,31.7-7.4,0-17.2-3-18.1-28a1.63,1.63,0,0,0-1.6-1.5h-3a1.372,1.372,0,0,0-1.4,1.6c.8,22.5,8.9,34,24.1,34,8.6,0,15.1-3.7,19.1-11,3.4-6.2,5.1-15,5.1-26.8C303.2,14.6,296.4,2,283,0c-1-.1-1.8.3-1.8,1.2Z" fill="#0c1c2c"></path></g><g id="Group_395" data-name="Group 395"><path id="Path_236" data-name="Path 236" d="M319.6,33.8c.7-21.2,7.9-26.6,14.5-27.7a1.861,1.861,0,0,0,1.3-1.8v-3A1.283,1.283,0,0,0,333.7.1C321.1,2,314.3,13.3,313.6,33.8a1.483,1.483,0,0,0,1.4,1.6h3a1.807,1.807,0,0,0,1.6-1.6Z" fill="#2b72d6"></path><path id="Path_237" data-name="Path 237" d="M339.9,1.2v3c0,.7.5,1.7,1.3,1.8,7.1,1.2,14.6,7.2,14.6,31.5,0,28.5-10.4,31.7-18.1,31.7-7.4,0-17.2-3-18.1-28a1.63,1.63,0,0,0-1.6-1.5h-3a1.372,1.372,0,0,0-1.4,1.6c.8,22.5,8.9,34,24.1,34,8.6,0,15.1-3.7,19.1-11,3.4-6.2,5.1-15,5.1-26.8,0-22.9-6.8-35.5-20.2-37.5-.9-.1-1.8.3-1.8,1.2Z" fill="#0c1c2c"></path></g></g></svg> 