<?xml version="1.0" encoding="UTF-8"?> <svg xmlns="http://www.w3.org/2000/svg" width="233.673" height="75" viewBox="0 0 233.673 75"><g id="_92_111" data-name="92,111" transform="translate(-0.001)"><g id="_1" transform="translate(125.333 1.99)"><path id="Rectangle_81" d="M209.42,13.634,228.058,2.843a1.5,1.5,0,0,1,2.022.506l1.434,2.528a1.5,1.5,0,0,1-.506,2.022L212.287,18.689a1.5,1.5,0,0,1-2.022-.506l-1.434-2.528A1.616,1.616,0,0,1,209.42,13.634Z" transform="translate(-208.682 -2.637)" fill="#2b72d6"></path><path id="Path_189" d="M232.01,18.893V73.615a1.473,1.473,0,0,0,1.434,1.434h2.867a1.473,1.473,0,0,0,1.434-1.434V15.52c0-.589-.589-.423-1.094-.166l-3.962,2.279a1.723,1.723,0,0,0-.672,1.268Z" transform="translate(-214.407 -5.701)"></path></g><g id="_1-2" transform="translate(167.435 1.99)"><path id="Rectangle_81-2" d="M265.189,13.634,283.827,2.843a1.5,1.5,0,0,1,2.022.506l1.434,2.528a1.5,1.5,0,0,1-.506,2.022L268.139,18.689a1.5,1.5,0,0,1-2.022-.506l-1.434-2.528A1.5,1.5,0,0,1,265.189,13.634Z" transform="translate(-264.477 -2.637)" fill="#2b72d6"></path><path id="Path_189-2" d="M287.89,18.893V73.615a1.474,1.474,0,0,0,1.434,1.434h2.867a1.473,1.473,0,0,0,1.434-1.434V15.52c0-.589-.589-.423-1.094-.166l-3.962,2.279A1.492,1.492,0,0,0,287.9,18.9Z" transform="translate(-270.223 -5.701)"></path></g><g id="_1-3" transform="translate(210.363 1.99)"><path id="Rectangle_81-3" d="M322.079,13.634,340.717,2.843a1.5,1.5,0,0,1,2.022.506l1.434,2.528a1.5,1.5,0,0,1-.506,2.022L325.029,18.689a1.5,1.5,0,0,1-2.022-.506l-1.434-2.528A1.5,1.5,0,0,1,322.079,13.634Z" transform="translate(-321.367 -2.637)" fill="#2b72d6"></path><path id="Path_189-3" d="M344.66,18.893V73.615a1.474,1.474,0,0,0,1.434,1.434h2.867a1.473,1.473,0,0,0,1.434-1.434V15.52c0-.589-.589-.423-1.094-.166l-3.962,2.279a1.723,1.723,0,0,0-.672,1.268Z" transform="translate(-327.084 -5.701)"></path></g><g id="_2" transform="translate(51.511 1.087)"><path id="Path_190" d="M119.621,88.06H83.364a1.474,1.474,0,0,0-1.434,1.434v2.95a1.473,1.473,0,0,0,1.434,1.434h36.258a1.473,1.473,0,0,0,1.434-1.434V89.577A1.392,1.392,0,0,0,119.621,88.06Z" transform="translate(-81.93 -22.698)" fill="#2b72d6"></path><path id="Path_191" d="M84.93,13l2.445,1.517a1.457,1.457,0,0,0,1.939-.423c2.279-3.373,6.157-6.829,11.975-6.829,7.252,0,13.069,5.478,13.069,12.315,0,3.456-1.856,7.086-6.663,13.575L85.6,61.316a.758.758,0,0,0,0,1.011.655.655,0,0,0,.423.166h5.063a1.68,1.68,0,0,0,1.351-.589l19.815-25.211c4.89-6.489,7.84-11.553,7.84-17.121.083-9.953-8.346-18.133-18.8-18.133-6.746,0-12.647,3.373-16.865,9.53a1.472,1.472,0,0,0,.423,2.022h.083Z" transform="translate(-82.486 -1.44)" fill="#05172c"></path></g><g id="_9" transform="translate(0.001)"><path id="Path_194" d="M1.193,24.657c-.928,0-1.268.762-1.177,1.69A21.591,21.591,0,0,0,27.678,44.14L12.5,69.947A1.5,1.5,0,0,0,13,71.969h0L15.53,73.4a1.5,1.5,0,0,0,2.022-.506h0L40.318,34.278h-.083a23.672,23.672,0,0,0,3.116-11.719C43.351,11.6,36.1,2.661,26.23.548c-.928-.34-1.773.672-1.773,1.6V5.015A1.132,1.132,0,0,0,25.55,6.192c7.086,1.773,11.975,8.18,11.975,16.193,0,9.53-6.829,16.7-16.02,16.7A15.791,15.791,0,0,1,5.818,25.759c-.083-.672-.34-1.177-1.011-1.177,0,.083-3.63.083-3.63.083Z" transform="translate(-0.001 -0.118)" fill="#0e1c2b"></path><path id="Path_195" d="M1.193,20.155H4.061a1.912,1.912,0,0,0,1.773-1.177A15.85,15.85,0,0,1,18.82,5.825,1.615,1.615,0,0,0,20,4.135V1.268A1.2,1.2,0,0,0,18.73,0a.328.328,0,0,0-.257.083A22,22,0,0,0,.016,18.465c-.083.928.257,1.69,1.177,1.69h0Z" transform="translate(-0.002)" fill="#2b72d6"></path></g><path id="comma" d="M160.763,87.288l12.986-21.249a1.5,1.5,0,0,1,2.022-.506l2.445,1.517a1.5,1.5,0,0,1,.506,2.022L165.736,90.321a1.5,1.5,0,0,1-2.022.506l-2.445-1.517a1.5,1.5,0,0,1-.506-2.022Z" transform="translate(-61.755 -16.033)" fill="#101c2a"></path></g></svg> 